PathFileType	3	(X/Y/Z)	D:\Vicon Database\Healthy Subjects\S0040\Jan. 30, 2020\Force Plate Walk 7.trc
DataRate	CameraRate	NumFrames	NumMarkers	Units	OrigDataRate	OrigDataStartFrame	OrigNumFrames
100.0	100.0	4	53	mm	100.0	313	319	
Frame#	Time	sternum_cluster1			sternum_cluster2			sternum_cluster3			left_asis			right_asis			left_psis			right_psis			sacrum_cluster1			sacrum_cluster2			sacrum_cluster3			left_lat_femoral_epicondyle			left_anterior_thigh15			left_anterior_thigh25			left_anterior_thigh50			left_lateral_thigh25			left_lateral_thigh50			left_thigh_cluster1			left_thigh_cluster2			left_thigh_cluster3			left_fibular_head			left_tibial_tuberosity			left_anterior_shank30			left_lateral_malleolus			left_shank_cluster1			left_shank_cluster2			left_shank_cluster3			left_heel			left_metatarsal2			left_foot_cluster1			left_foot_cluster2			left_foot_cluster3			right_lat_femoral_epicondyle			right_anterior_thigh15			right_anterior_thigh25			right_anterior_thigh50			right_lateral_thigh25			right_lateral_thigh50			right_thigh_cluster1			right_thigh_cluster2			right_thigh_cluster3			right_fibular_head			right_tibial_tuberosity			right_lateral_distal_shank			right_anterior_shank30			right_lateral_malleolus			right_shank_cluster1			right_shank_cluster2			right_shank_cluster3			right_heel			right_metatarsal2			right_foot_cluster1			right_foot_cluster2			right_foot_cluster3			
		X1	Y1	Z1	X2	Y2	Z2	X3	Y3	Z3	X4	Y4	Z4	X5	Y5	Z5	X6	Y6	Z6	X7	Y7	Z7	X8	Y8	Z8	X9	Y9	Z9	X10	Y10	Z10	X11	Y11	Z11	X12	Y12	Z12	X13	Y13	Z13	X14	Y14	Z14	X15	Y15	Z15	X16	Y16	Z16	X17	Y17	Z17	X18	Y18	Z18	X19	Y19	Z19	X20	Y20	Z20	X21	Y21	Z21	X22	Y22	Z22	X23	Y23	Z23	X24	Y24	Z24	X25	Y25	Z25	X26	Y26	Z26	X27	Y27	Z27	X28	Y28	Z28	X29	Y29	Z29	X30	Y30	Z30	X31	Y31	Z31	X32	Y32	Z32	X33	Y33	Z33	X34	Y34	Z34	X35	Y35	Z35	X36	Y36	Z36	X37	Y37	Z37	X38	Y38	Z38	X39	Y39	Z39	X40	Y40	Z40	X41	Y41	Z41	X42	Y42	Z42	X43	Y43	Z43	X44	Y44	Z44	X45	Y45	Z45	X46	Y46	Z46	X47	Y47	Z47	X48	Y48	Z48	X49	Y49	Z49	X50	Y50	Z50	X51	Y51	Z51	X52	Y52	Z52	X53	Y53	Z53	
313	3.12	2638.3098	1420.6807	-130.08147	2626.5911	1392.6167	-122.92614	2630.9404	1395.2662	-160.63966	2656.9021	1039.4434	-9.0704069	2666.1575	1055.0862	-260.24161	2824.2969	1065.437	-58.966419	2832.1226	1065.2799	-176.23375	2836.7734	1121.2437	-123.31012	2843.5344	1095.9756	-134.64072	2843.2859	1090.6499	-95.364143	2881.4956	550.62097	5.264545	2760.7991	588.56787	-41.429577	2708.5586	662.85565	-22.806093	2661.928	797.1543	-0.69179165	2824.301	692.63342	28.484453	2766.5178	827.4129	55.321411	2786.6018	785.95923	60.739422	2798.2532	759.12726	57.214588	2760.7151	756.17639	62.991688	2909.8169	474.20151	11.393579	2862.8696	442.87537	-41.80452	2984.7515	222.1404	-54.247688	3079.7461	136.70941	-27.556255	2884.7444	392.91699	-70.896355	2891.5483	366.22269	-61.525635	2903.9238	372.22397	-97.749832	3163.2488	120.00854	-61.420784	2951.4434	63.037098	-61.379143	2996.5737	125.59071	-55.26244	2978.3867	103.16864	-45.452179	2972.4385	107.4826	-83.249207	2552.6011	537.18549	-276.16565	2506.7974	647.2511	-222.32321	2522.3318	724.56641	-222.4814	2571.4407	842.12366	-229.42825	2612.8101	683.15515	-305.32181	2668.5659	821.46222	-330.30908	2656.2668	768.71362	-336.13422	2635.9197	748.19598	-333.4635	2671.325	733.17847	-324.95377	2537.0286	472.15686	-279.5159	2479.6331	484.0509	-236.99222	2450.1489	215.78754	-271.34314	2410.5754	246.14871	-227.61063	2403.217	115.26322	-257.68454	2464.522	420.18954	-183.5766	2459.8408	391.84799	-176.65926	2438.3418	398.52261	-206.14986	2451.8191	50.606152	-217.80373	2262.4734	157.82346	-226.6461	2332.5825	173.6624	-225.73573	2304.5295	172.38501	-217.01553	2306.5271	172.45326	-254.29744
314	3.13	2623.9714	1419.2794	-131.63795	2611.8789	1391.4966	-124.39206	2616.1995	1394.1235	-162.01779	2640.8008	1038.1384	-10.653378	2650.1411	1054.0626	-262.10678	2808.322	1063.7374	-60.452374	2816.1406	1063.4955	-177.68825	2820.9727	1119.3921	-124.73397	2827.6594	1094.1045	-136.08543	2827.3459	1088.7991	-96.863258	2865.1924	549.23047	4.4122167	2744.5842	586.69769	-41.943592	2692.0854	661.41473	-23.255251	2645.9663	796.0033	-1.7419213	2808.3879	691.349	27.251383	2750.7429	826.26898	53.557217	2770.9197	785.05658	59.175945	2782.5347	758.17303	55.683281	2744.9373	755.39301	61.924053	2894.6316	473.69031	11.065514	2848.3186	440.50583	-42.018631	2977.0198	223.62202	-54.164532	3074.5857	141.07031	-26.617693	2871.4417	391.27551	-70.7052	2879.946	364.69763	-61.75198	2892.3472	370.81357	-97.895332	3158.6411	127.55505	-61.1385	2949.4736	62.213181	-61.099823	2991.6511	126.35015	-54.271343	2974.231	102.97562	-44.901096	2968.394	107.65137	-82.737938	2535.499	535.74817	-277.17642	2489.6428	647.39233	-224.8718	2505.6494	724.27386	-224.71515	2555.2322	841.14716	-231.13693	2595.3467	682.22174	-307.35141	2652.4058	820.45734	-332.24344	2639.9165	767.3103	-338.13977	2619.1582	746.99017	-334.96341	2654.4114	731.8252	-326.6163	2521.2471	470.41364	-280.16641	2463.6299	481.42062	-238.04514	2441.2949	212.01213	-269.84009	2400.0903	241.95531	-227.19987	2396.8145	111.56385	-256.43869	2449.4092	417.50839	-183.88242	2445.4768	389.17395	-176.99258	2424.5173	394.63086	-206.91141	2448.1194	51.097729	-215.82953	2253.4324	147.50475	-224.84984	2322.8169	166.41563	-223.03598	2294.5691	163.86179	-214.56544	2296.8491	164.57416	-251.99294
315	3.14	2609.3101	1418.412	-133.1413	2597.1284	1390.7522	-125.91981	2601.3738	1393.3394	-163.62726	2624.5708	1037.1046	-12.326232	2634.0168	1053.0109	-264.05743	2792.1538	1062.371	-62.083801	2799.9246	1061.9857	-179.35796	2804.916	1117.9602	-126.49444	2811.4939	1092.6047	-137.74634	2811.1169	1087.3314	-98.565269	2847.8123	547.72272	3.5597386	2726.6587	584.9342	-41.980297	2674.7935	660.20435	-23.688665	2629.4631	795.1499	-3.0223823	2791.5405	689.93042	25.862999	2734.5127	825.11615	51.585796	2754.5686	783.97009	57.118626	2766.1807	757.18915	54.198502	2728.606	754.58472	60.628628	2878.2793	472.77539	10.494791	2831.4209	439.17181	-42.871269	2969.032	225.55861	-54.003223	3068.5818	145.85617	-25.784372	2857.5581	388.83691	-70.326195	2867.03	363.26389	-62.040028	2879.2227	369.48911	-98.169762	3153.0127	136.04906	-60.963497	2947.1589	61.189667	-60.713364	2986.0603	127.1526	-53.600189	2970.0076	103.18208	-44.438442	2963.7324	107.66326	-82.232224	2518.4785	534.46747	-278.2196	2472.0938	647.35602	-227.20592	2488.4946	724.17273	-226.74998	2538.8977	840.37805	-232.71335	2578.144	681.4895	-309.62827	2636.1465	819.12634	-333.80817	2623.4678	765.83978	-339.73328	2602.7488	745.65125	-336.52057	2637.4773	730.21741	-328.31485	2506.0845	468.86249	-280.43701	2448.1064	478.83212	-238.74832	2433.157	208.74493	-268.3674	2390.0308	237.86433	-226.62639	2390.2144	108.70585	-255.856	2435.6453	415.13199	-184.41463	2431.9121	386.47134	-176.87918	2410.4561	391.39716	-206.60161	2444.3284	52.001568	-215.18411	2244.8376	136.95917	-222.98715	2312.7905	159.44547	-221.12009	2285.0581	155.29242	-212.61217	2287.1206	156.60008	-250.02005
316	3.15	2594.4028	1417.9967	-134.82616	2582.2988	1390.324	-127.57595	2586.5142	1393.0553	-165.31099	2608.124	1036.6116	-13.987861	2617.292	1052.3313	-265.94443	2775.7822	1061.3724	-63.849003	2783.4517	1060.9169	-181.19318	2788.415	1116.9561	-128.30841	2794.98	1091.5197	-139.60654	2794.5745	1086.3606	-100.38286	2829.0881	546.07281	2.5295267	2707.6802	583.10187	-42.546974	2656.5239	659.09229	-24.576244	2612.4131	794.59851	-4.5089636	2773.8987	688.56299	24.54254	2717.5935	824.12317	49.434372	2737.5303	782.9079	55.047977	2748.8042	755.81866	52.047993	2711.3896	753.64886	58.632481	2860.7493	472.0134	9.9702234	2815.3809	436.39655	-42.92738	2959.9082	227.79105	-53.777081	3061.3555	151.02762	-25.102779	2842.2903	386.97458	-70.586586	2852.7671	361.79813	-62.040543	2864.8328	368.41199	-98.512077	3146.085	145.72403	-60.841412	2944.4763	60.214706	-60.352711	2979.301	128.23335	-52.890141	2964.5273	103.229	-43.698765	2958.3003	106.96061	-81.81694	2501.6736	533.68298	-279.14447	2454.5425	647.05249	-229.09404	2471.2173	724.11182	-228.25562	2522.27	839.7124	-234.26367	2561.5608	680.10345	-309.42114	2619.8145	817.63428	-334.96411	2607.0828	764.32434	-340.95065	2586.4363	744.39349	-337.49167	2620.7864	728.48969	-329.45026	2491.0508	467.52527	-280.94495	2433.0342	476.79282	-239.41516	2424.1667	206.52533	-267.61743	2379.5459	234.63678	-226.49677	2382.8752	106.08288	-255.5891	2422.2546	411.88098	-184.3746	2419.0159	383.79333	-176.78825	2397.1509	388.16019	-206.34172	2440.1226	53.176735	-215.31998	2237.3386	127.86756	-220.78934	2304.2205	153.10913	-219.79739	2276.7119	147.97624	-210.93498	2278.0757	149.20061	-248.39569
